<svg width="58" height="57" viewBox="0 0 58 57" fill="none" xmlns="http://www.w3.org/2000/svg">
<mask id="mask0_1721_1004" style="mask-type:luminance" maskUnits="userSpaceOnUse" x="0" y="0" width="58" height="57">
<path d="M57.1059 0.212891H0.758301V56.5605H57.1059V0.212891Z" fill="white"/>
</mask>
<g mask="url(#mask0_1721_1004)">
<path d="M28.9321 0.65332C17.0381 0.65332 7.36157 10.3298 7.36157 22.2239C7.36157 28.0017 10.8621 35.4215 17.7657 44.2763C20.9286 48.3226 24.3539 52.1568 28.0193 55.7542C28.2651 55.9893 28.5921 56.1204 28.9321 56.1204C29.2722 56.1204 29.5992 55.9893 29.8449 55.7542C33.5104 52.1568 36.9356 48.3226 40.0985 44.2763C47.0022 35.4215 50.5027 28.0017 50.5027 22.2239C50.5027 10.3298 40.8262 0.65332 28.9321 0.65332ZM28.9321 37.6314C20.436 37.6314 13.5246 30.72 13.5246 22.2239C13.5246 13.7277 20.436 6.81634 28.9321 6.81634C37.4283 6.81634 44.3397 13.7277 44.3397 22.2239C44.3397 30.72 37.4283 37.6314 28.9321 37.6314Z" fill="#525252"/>
<path d="M28.9322 37.7779C37.7495 37.7779 44.8974 30.63 44.8974 21.8128C44.8974 12.9955 37.7495 5.84766 28.9322 5.84766C20.1149 5.84766 12.967 12.9955 12.967 21.8128C12.967 30.63 20.1149 37.7779 28.9322 37.7779Z" fill="#525252"/>
<path d="M29.5344 9.52266C29.4684 9.44557 29.3865 9.38369 29.2943 9.34126C29.2021 9.29883 29.1018 9.27686 29.0003 9.27686C28.8988 9.27686 28.7985 9.29883 28.7063 9.34126C28.6141 9.38369 28.5322 9.44557 28.4662 9.52266C26.6111 11.6924 20.5625 19.1936 20.5625 24.75C20.5625 29.9279 23.8227 33.1875 29 33.1875C34.1773 33.1875 37.4375 29.9279 37.4375 24.75C37.4375 19.1936 31.3889 11.6924 29.5344 9.52266ZM29.9375 30.1406C29.8249 30.1409 29.7139 30.1141 29.6138 30.0625C29.5137 30.0109 29.4274 29.936 29.3623 29.8441C29.2972 29.7522 29.2551 29.646 29.2396 29.5345C29.224 29.4229 29.2355 29.3093 29.273 29.2031C29.321 29.0646 29.4114 28.9447 29.5315 28.8605C29.6515 28.7764 29.795 28.7322 29.9416 28.7344C30.8723 28.7324 31.7643 28.3618 32.4224 27.7037C33.0805 27.0456 33.4511 26.1536 33.4531 25.2229C33.451 25.0763 33.4951 24.9327 33.5793 24.8127C33.6635 24.6927 33.7833 24.6022 33.9219 24.5543C34.0281 24.5168 34.1417 24.5053 34.2532 24.5208C34.3648 24.5363 34.471 24.5784 34.5628 24.6436C34.6547 24.7087 34.7296 24.7949 34.7812 24.895C34.8328 24.9951 34.8596 25.1061 34.8594 25.2188C34.858 26.5237 34.339 27.7748 33.4163 28.6975C32.4935 29.6202 31.2424 30.1392 29.9375 30.1406Z" fill="white"/>
</g>
</svg>
