<svg width="58" height="57" viewBox="0 0 58 57" fill="none" xmlns="http://www.w3.org/2000/svg">
<mask id="mask0_1721_988" style="mask-type:luminance" maskUnits="userSpaceOnUse" x="0" y="0" width="58" height="57">
<path d="M57.1059 0.212891H0.758301V56.5605H57.1059V0.212891Z" fill="white"/>
</mask>
<g mask="url(#mask0_1721_988)">
<path d="M28.9321 0.65332C17.0381 0.65332 7.36157 10.3298 7.36157 22.2239C7.36157 28.0017 10.8621 35.4215 17.7657 44.2763C20.9286 48.3226 24.3539 52.1568 28.0193 55.7542C28.2651 55.9893 28.5921 56.1204 28.9321 56.1204C29.2722 56.1204 29.5992 55.9893 29.8449 55.7542C33.5104 52.1568 36.9356 48.3226 40.0985 44.2763C47.0022 35.4215 50.5027 28.0017 50.5027 22.2239C50.5027 10.3298 40.8262 0.65332 28.9321 0.65332ZM28.9321 37.6314C20.436 37.6314 13.5246 30.72 13.5246 22.2239C13.5246 13.7277 20.436 6.81634 28.9321 6.81634C37.4283 6.81634 44.3397 13.7277 44.3397 22.2239C44.3397 30.72 37.4283 37.6314 28.9321 37.6314Z" fill="#525252"/>
<path d="M28.9322 37.7779C37.7495 37.7779 44.8974 30.63 44.8974 21.8128C44.8974 12.9955 37.7495 5.84766 28.9322 5.84766C20.1149 5.84766 12.967 12.9955 12.967 21.8128C12.967 30.63 20.1149 37.7779 28.9322 37.7779Z" fill="#525252"/>
<path d="M41.1875 21.6443C41.1796 21.4981 41.1202 21.3594 41.0198 21.2528C40.9194 21.1462 40.7845 21.0785 40.6391 21.0619L39.1367 20.8187C39.0692 20.8076 39.007 20.775 38.9594 20.7257C38.9119 20.6764 38.8816 20.613 38.8731 20.5451C38.8443 20.3605 38.8145 20.1689 38.7734 19.9873C38.7602 19.9212 38.768 19.8526 38.7956 19.7912C38.8232 19.7297 38.8694 19.6785 38.9275 19.6445L40.2623 18.9033C40.3949 18.8357 40.4979 18.7218 40.552 18.5832C40.606 18.4446 40.6072 18.2909 40.5553 18.1515L40.3238 17.5128C40.2731 17.3729 40.1725 17.2567 40.0414 17.1863C39.9102 17.1159 39.7577 17.0964 39.6131 17.1314L38.116 17.4244C38.0491 17.4363 37.9801 17.4269 37.9188 17.3973C37.8576 17.3677 37.8073 17.3196 37.775 17.2597C37.6877 17.0962 37.5928 16.9298 37.4938 16.7664C37.4578 16.7081 37.4409 16.6401 37.4456 16.5718C37.4502 16.5035 37.4761 16.4384 37.5195 16.3855L38.5156 15.2347C38.6168 15.1261 38.6749 14.9843 38.6791 14.8359C38.6834 14.6875 38.6334 14.5427 38.5385 14.4285L38.1037 13.9064C38.0091 13.7918 37.8754 13.7164 37.7284 13.6947C37.5814 13.6731 37.4316 13.7068 37.308 13.7892L35.9973 14.5761C35.9392 14.6109 35.8714 14.6262 35.804 14.6195C35.7366 14.6129 35.6731 14.5847 35.6229 14.5392C35.4781 14.4121 35.3299 14.2896 35.191 14.1765C35.1377 14.1345 35.0992 14.0765 35.0811 14.0111C35.063 13.9456 35.0662 13.8761 35.0902 13.8126L35.6328 12.383C35.6919 12.2465 35.6988 12.0932 35.6523 11.952C35.6057 11.8108 35.5089 11.6917 35.3803 11.6171L34.7891 11.272C34.6603 11.1978 34.5087 11.1737 34.3633 11.2043C34.2179 11.2349 34.0889 11.318 34.001 11.4378L33.043 12.6414C33.0085 12.6937 32.9569 12.7323 32.897 12.7507C32.8372 12.7691 32.7727 12.7661 32.7149 12.7421C32.6791 12.7275 32.3768 12.6039 32.1418 12.5253C32.0774 12.5043 32.0213 12.4633 31.9819 12.4081C31.9425 12.353 31.9217 12.2867 31.9227 12.2189L31.9455 10.6914C31.9537 10.5422 31.9072 10.3952 31.8148 10.2778C31.7223 10.1605 31.5903 10.0809 31.4434 10.0539L30.7725 9.93667C30.6263 9.91142 30.4759 9.94009 30.3493 10.0174C30.2227 10.0946 30.1284 10.2152 30.084 10.3568L29.5859 11.8105C29.5633 11.875 29.5206 11.9306 29.4641 11.9691C29.4076 12.0076 29.3402 12.027 29.2719 12.0244H28.7006C28.6328 12.0258 28.5663 12.0057 28.5105 11.9671C28.4548 11.9285 28.4126 11.8733 28.39 11.8093L27.8943 10.3638C27.8507 10.2212 27.7566 10.0995 27.6297 10.0213C27.5027 9.94306 27.3517 9.91382 27.2047 9.93902L26.5326 10.0562C26.3866 10.083 26.2553 10.1618 26.1631 10.2781C26.0709 10.3944 26.0239 10.5402 26.0311 10.6884L26.0545 12.2212C26.055 12.29 26.0332 12.3571 25.9925 12.4126C25.9517 12.468 25.8941 12.5088 25.8283 12.5289C25.6941 12.581 25.4029 12.6923 25.2705 12.7416C25.1533 12.7837 25.0256 12.7375 24.9225 12.6185L23.9697 11.4466C23.8823 11.3261 23.7534 11.2421 23.6078 11.2109C23.4623 11.1796 23.3103 11.2033 23.1811 11.2773L22.5916 11.6189C22.4616 11.6935 22.3637 11.8137 22.317 11.9562C22.2703 12.0987 22.2779 12.2534 22.3385 12.3906L22.8805 13.8168C22.9041 13.8804 22.9072 13.9498 22.8894 14.0153C22.8715 14.0808 22.8336 14.139 22.7809 14.1818C22.6385 14.299 22.4926 14.4162 22.3473 14.5462C22.2974 14.5914 22.2343 14.6194 22.1674 14.6261C22.1005 14.6329 22.0331 14.618 21.9752 14.5837L20.6797 13.7816C20.5553 13.7007 20.4056 13.6679 20.2588 13.6895C20.112 13.7111 19.9781 13.7855 19.8822 13.8988L19.4492 14.4197C19.353 14.5331 19.3021 14.678 19.3061 14.8267C19.3101 14.9753 19.3688 15.1173 19.4709 15.2253L20.4717 16.375C20.5161 16.4268 20.5426 16.4915 20.5474 16.5596C20.5521 16.6276 20.5348 16.6954 20.4981 16.7529C20.3979 16.9123 20.3024 17.0798 20.2156 17.2474C20.1832 17.3077 20.1325 17.3562 20.0708 17.3858C20.0091 17.4155 19.9396 17.4249 19.8723 17.4127L18.3775 17.1238C18.2328 17.0889 18.0803 17.1084 17.9491 17.1788C17.8179 17.2492 17.7172 17.3654 17.6662 17.5052L17.4318 18.1427C17.38 18.2823 17.3813 18.4361 17.4353 18.5749C17.4892 18.7136 17.5923 18.8278 17.7248 18.8957L19.0596 19.6369C19.1196 19.67 19.1672 19.7218 19.1952 19.7843C19.2232 19.8469 19.2301 19.9169 19.2149 19.9837L19.2008 20.0582C19.1703 20.2216 19.1422 20.3763 19.1152 20.541C19.1059 20.6081 19.0756 20.6705 19.0287 20.7193C18.9818 20.7681 18.9206 20.8009 18.8539 20.8128L17.3486 21.056C17.2014 21.0741 17.0658 21.1451 16.9672 21.2559C16.8685 21.3666 16.8135 21.5095 16.8125 21.6578V22.3363C16.8117 22.4852 16.8661 22.6291 16.9652 22.7401C17.0644 22.8512 17.2012 22.9215 17.3492 22.9375L18.8539 23.18C18.9215 23.191 18.9838 23.2236 19.0313 23.273C19.0788 23.3223 19.1091 23.3857 19.1176 23.4537C19.1463 23.6388 19.1762 23.8298 19.2172 24.0115C19.2304 24.0775 19.2227 24.1461 19.195 24.2075C19.1674 24.269 19.1213 24.3203 19.0631 24.3542L17.7289 25.0966C17.5964 25.1642 17.4933 25.2781 17.4393 25.4167C17.3853 25.5553 17.3841 25.709 17.4359 25.8484L17.6703 26.4871C17.7212 26.6269 17.8218 26.7431 17.9529 26.8134C18.084 26.8838 18.2364 26.9034 18.3811 26.8685L19.8781 26.5785C19.9451 26.5663 20.0142 26.5757 20.0754 26.6053C20.1367 26.6349 20.187 26.6831 20.2192 26.7431C20.307 26.9072 20.4014 27.073 20.5004 27.2365C20.5365 27.2947 20.5535 27.3627 20.5489 27.4311C20.5442 27.4994 20.5183 27.5646 20.4746 27.6173L19.4785 28.7675C19.3762 28.8753 19.3167 29.0168 19.3113 29.1654C19.3059 29.314 19.3549 29.4594 19.4492 29.5744L19.8834 30.0964C19.9779 30.2111 20.1117 30.2866 20.2587 30.3083C20.4057 30.3299 20.5556 30.2962 20.6791 30.2136L21.9899 29.4267C22.048 29.3919 22.1157 29.3767 22.1832 29.3833C22.2506 29.39 22.3141 29.4181 22.3643 29.4636C22.5096 29.5908 22.6572 29.7132 22.7961 29.8263C22.8494 29.8684 22.8879 29.9263 22.9061 29.9917C22.9243 30.0571 22.9213 30.1266 22.8975 30.1902L22.3543 31.6199C22.2952 31.7563 22.2883 31.9097 22.3349 32.0508C22.3814 32.192 22.4782 32.3112 22.6068 32.3857L23.1992 32.7279C23.3279 32.8022 23.4794 32.8264 23.6249 32.7959C23.7703 32.7654 23.8993 32.6824 23.9873 32.5626L24.957 31.3703C25.0391 31.2689 25.168 31.2238 25.2635 31.2625C25.4674 31.3468 25.6039 31.3943 25.8459 31.4751C25.9104 31.4962 25.9664 31.5373 26.0059 31.5924C26.0455 31.6475 26.0664 31.7138 26.0656 31.7816L26.0422 33.308C26.0343 33.4571 26.0809 33.604 26.1733 33.7212C26.2656 33.8385 26.3975 33.9182 26.5443 33.9455L27.2152 34.0626C27.3614 34.0882 27.5119 34.0596 27.6386 33.9823C27.7653 33.905 27.8595 33.7842 27.9037 33.6425L28.4018 32.1912C28.4243 32.1266 28.467 32.0709 28.5235 32.0324C28.5801 31.9939 28.6475 31.9746 28.7158 31.9773H29.2871C29.3549 31.9758 29.4215 31.9958 29.4773 32.0344C29.5331 32.0731 29.5752 32.1283 29.5977 32.1923L30.094 33.6378C30.1324 33.7633 30.21 33.8732 30.3155 33.9513C30.4209 34.0295 30.5486 34.0718 30.6799 34.072C30.7149 34.0721 30.7498 34.069 30.7842 34.0626L31.4563 33.9455C31.6022 33.9187 31.7335 33.8398 31.8258 33.7235C31.918 33.6073 31.9649 33.4615 31.9578 33.3132L31.9344 31.7804C31.9339 31.7129 31.955 31.647 31.9945 31.5922C32.034 31.5374 32.0899 31.4966 32.1541 31.4757C32.3791 31.4001 32.5373 31.3392 32.6762 31.2853L32.7113 31.2718C32.893 31.2091 32.9809 31.2853 33.0318 31.3486L34.0133 32.5574C34.1013 32.6769 34.2302 32.7599 34.3755 32.7904C34.5208 32.8209 34.6722 32.7967 34.8008 32.7226L35.3908 32.381C35.5199 32.3065 35.617 32.187 35.6636 32.0454C35.7101 31.9038 35.703 31.75 35.6434 31.6134L35.102 30.1873C35.0781 30.1237 35.0748 30.0543 35.0926 29.9888C35.1103 29.9232 35.1483 29.865 35.201 29.8222C35.3434 29.705 35.4893 29.5878 35.6346 29.4578C35.6848 29.4125 35.7482 29.3845 35.8155 29.378C35.8828 29.3715 35.9504 29.3867 36.0084 29.4214L37.3203 30.2066C37.4447 30.2876 37.5944 30.3205 37.7412 30.2989C37.8881 30.2773 38.022 30.2028 38.1178 30.0894L38.5514 29.5679C38.6476 29.4545 38.6985 29.3096 38.6945 29.1609C38.6905 29.0123 38.6318 28.8703 38.5297 28.7623L37.5301 27.6097C37.4857 27.5579 37.4591 27.4932 37.4544 27.4251C37.4496 27.357 37.4669 27.2893 37.5037 27.2318C37.6039 27.073 37.6994 26.9054 37.7861 26.7373C37.8187 26.6771 37.8694 26.6287 37.9311 26.5991C37.9927 26.5694 38.0622 26.5599 38.1295 26.572L39.6225 26.8632C39.7672 26.8982 39.9197 26.8786 40.0509 26.8082C40.1821 26.7379 40.2828 26.6217 40.3338 26.4818L40.5652 25.8443C40.617 25.7048 40.6158 25.5511 40.5618 25.4124C40.5078 25.2737 40.4048 25.1597 40.2723 25.0919L38.9363 24.3496C38.8771 24.3161 38.8303 24.2645 38.8028 24.2023C38.7752 24.1401 38.7684 24.0708 38.7834 24.0044L38.7975 23.93C38.8279 23.7666 38.8561 23.6119 38.883 23.4472C38.8923 23.3801 38.9226 23.3177 38.9696 23.2689C39.0165 23.22 39.0777 23.1873 39.1443 23.1753L40.6496 22.9328C40.7972 22.915 40.9332 22.844 41.0322 22.7331C41.1312 22.6222 41.1864 22.4791 41.1875 22.3304V21.6443ZM24.6377 27.1521C24.5647 27.2791 24.4626 27.3869 24.3398 27.4667C24.217 27.5466 24.077 27.5961 23.9313 27.6113C23.7857 27.6266 23.6385 27.607 23.5018 27.5542C23.3652 27.5015 23.243 27.4171 23.1453 27.308C21.8253 25.8484 21.0964 23.9494 21.101 21.9814C21.1055 20.0135 21.8432 18.1178 23.1699 16.6644C23.2681 16.5553 23.3908 16.4711 23.5279 16.4187C23.665 16.3664 23.8126 16.3473 23.9585 16.3632C24.1045 16.379 24.2445 16.4293 24.3672 16.5099C24.4898 16.5905 24.5916 16.6991 24.6641 16.8267L27.3389 21.5347C27.4192 21.6751 27.4614 21.8341 27.4614 21.9959C27.4614 22.1576 27.4192 22.3166 27.3389 22.457L24.6377 27.1521ZM29 29.9166C28.4424 29.9167 27.8864 29.8578 27.3412 29.7408C27.1992 29.709 27.0666 29.6443 26.9543 29.5518C26.842 29.4593 26.753 29.3416 26.6946 29.2083C26.6363 29.075 26.6101 28.9298 26.6183 28.7845C26.6265 28.6392 26.6688 28.4979 26.7418 28.372L29.4371 23.6845C29.5182 23.5433 29.6351 23.4259 29.7761 23.3443C29.917 23.2628 30.077 23.2198 30.2399 23.2199H35.6387C35.7841 23.2196 35.9275 23.2537 36.0574 23.3192C36.1872 23.3848 36.2997 23.48 36.3859 23.5971C36.4721 23.7143 36.5294 23.8501 36.5533 23.9935C36.5772 24.137 36.567 24.284 36.5234 24.4228C35.4986 27.6056 32.5156 29.9166 29 29.9166ZM29.44 20.313L26.7734 15.6173C26.7012 15.4912 26.6596 15.3499 26.6521 15.2048C26.6445 15.0596 26.6712 14.9148 26.73 14.7819C26.7888 14.649 26.8781 14.5317 26.9906 14.4397C27.1031 14.3477 27.2356 14.2834 27.3775 14.2521C27.911 14.1397 28.4548 14.0831 29 14.0834C32.5156 14.0834 35.4986 16.3943 36.5217 19.5789C36.5652 19.7176 36.5755 19.8647 36.5516 20.0081C36.5277 20.1516 36.4703 20.2874 36.3841 20.4045C36.298 20.5217 36.1854 20.6169 36.0556 20.6824C35.9258 20.748 35.7824 20.782 35.6369 20.7818H30.2463C30.0824 20.7821 29.9214 20.7389 29.7797 20.6565C29.6381 20.5741 29.5208 20.4556 29.44 20.313Z" fill="white"/>
</g>
</svg>
