<svg width="58" height="57" viewBox="0 0 58 57" fill="none" xmlns="http://www.w3.org/2000/svg">
<mask id="mask0_1721_1136" style="mask-type:luminance" maskUnits="userSpaceOnUse" x="0" y="0" width="58" height="57">
<path d="M57.1059 0.212891H0.758301V56.5605H57.1059V0.212891Z" fill="white"/>
</mask>
<g mask="url(#mask0_1721_1136)">
<path d="M28.9321 0.65332C17.0381 0.65332 7.36157 10.3298 7.36157 22.2239C7.36157 28.0017 10.8621 35.4215 17.7657 44.2763C20.9286 48.3226 24.3539 52.1568 28.0193 55.7542C28.2651 55.9893 28.5921 56.1204 28.9321 56.1204C29.2722 56.1204 29.5992 55.9893 29.8449 55.7542C33.5104 52.1568 36.9356 48.3226 40.0985 44.2763C47.0022 35.4215 50.5027 28.0017 50.5027 22.2239C50.5027 10.3298 40.8262 0.65332 28.9321 0.65332ZM28.9321 37.6314C20.436 37.6314 13.5246 30.72 13.5246 22.2239C13.5246 13.7277 20.436 6.81634 28.9321 6.81634C37.4283 6.81634 44.3397 13.7277 44.3397 22.2239C44.3397 30.72 37.4283 37.6314 28.9321 37.6314Z" fill="#525252"/>
<path d="M28.9322 37.7779C37.7495 37.7779 44.8974 30.63 44.8974 21.8128C44.8974 12.9955 37.7495 5.84766 28.9322 5.84766C20.1149 5.84766 12.967 12.9955 12.967 21.8128C12.967 30.63 20.1149 37.7779 28.9322 37.7779Z" fill="#525252"/>
</g>
<path d="M33.4906 11.784C32.3504 10.5529 30.7578 9.875 29 9.875C27.2328 9.875 25.635 10.5488 24.5 11.7723C23.3527 13.0092 22.7938 14.6902 22.925 16.5055C23.1852 20.0867 25.9104 23 29 23C32.0896 23 34.8102 20.0873 35.0744 16.5066C35.2074 14.7078 34.6449 13.0303 33.4906 11.784ZM39.3125 36.125H18.6875C18.4175 36.1285 18.1502 36.0718 17.9049 35.959C17.6596 35.8462 17.4426 35.6801 17.2695 35.4729C16.8887 35.0176 16.7352 34.3959 16.8488 33.7672C17.3434 31.0238 18.8867 28.7193 21.3125 27.1016C23.4676 25.6654 26.1975 24.875 29 24.875C31.8025 24.875 34.5324 25.666 36.6875 27.1016C39.1133 28.7188 40.6566 31.0232 41.1512 33.7666C41.2648 34.3953 41.1113 35.017 40.7305 35.4723C40.5575 35.6796 40.3405 35.8458 40.0952 35.9587C39.8499 36.0716 39.5825 36.1284 39.3125 36.125Z" fill="white"/>
</svg>
